<?xml version="1.0" encoding="UTF-8" standalone="no"?>
<!-- Created with Inkscape (http://www.inkscape.org/) -->

<svg
   xmlns:dc="http://purl.org/dc/elements/1.1/"
   xmlns:cc="http://creativecommons.org/ns#"
   xmlns:rdf="http://www.w3.org/1999/02/22-rdf-syntax-ns#"
   xmlns:svg="http://www.w3.org/2000/svg"
   xmlns="http://www.w3.org/2000/svg"
   xmlns:sodipodi="http://sodipodi.sourceforge.net/DTD/sodipodi-0.dtd"
   xmlns:inkscape="http://www.inkscape.org/namespaces/inkscape"
   width="284.27853mm"
   height="67.706627mm"
   viewBox="0 0 284.27853 67.706628"
   version="1.1"
   id="svg5827"
   inkscape:version="0.92.3 (2405546, 2018-03-11)"
   sodipodi:docname="sonos-tools-home.svg">
  <link
     href="https://fonts.googleapis.com/css?family=M+PLUS+1p"
     rel="stylesheet" />
  <title
     id="title6584">sonos-tools-home</title>
  <defs
     id="defs5821" />
  <sodipodi:namedview
     id="base"
     pagecolor="#ffffff"
     bordercolor="#666666"
     borderopacity="1.0"
     inkscape:pageopacity="0.0"
     inkscape:pageshadow="2"
     inkscape:zoom="5.6"
     inkscape:cx="51.78804"
     inkscape:cy="153.85041"
     inkscape:document-units="mm"
     inkscape:current-layer="layer1"
     showgrid="false"
     fit-margin-top="0"
     fit-margin-left="0"
     fit-margin-right="0"
     fit-margin-bottom="0"
     inkscape:window-width="2736"
     inkscape:window-height="1699"
     inkscape:window-x="-13"
     inkscape:window-y="-13"
     inkscape:window-maximized="1" />
  <metadata
     id="metadata5824">
    <rdf:RDF>
      <cc:Work
         rdf:about="">
        <dc:format>image/svg+xml</dc:format>
        <dc:type
           rdf:resource="http://purl.org/dc/dcmitype/StillImage" />
        <dc:title>sonos-tools-home</dc:title>
      </cc:Work>
    </rdf:RDF>
  </metadata>
  <g
     inkscape:label="Layer 1"
     inkscape:groupmode="layer"
     id="layer1"
     transform="translate(-6.3400433,-167.88808)">
    <path
       inkscape:connector-curvature="0"
       id="rect863-6"
       style="fill:#fffafa;fill-opacity:0.68627453;stroke:none;stroke-width:0.80000001;stroke-linecap:round;stroke-linejoin:round;stroke-miterlimit:4;stroke-dasharray:none;stroke-dashoffset:0;stroke-opacity:1"
       d="m 6.5906586,211.97543 c 0.0044,-11.11363 0.0088,-22.22725 0.081597,-33.92246 1.6497135,-3.57693 4.9107324,-5.15898 7.7594984,-6.72734 3.250013,-1.54415 6.703018,-3.02844 10.346006,-3.18755 5.58156,0.12839 10.83039,2.76493 15.2333,6.03899 1.404226,1.26879 3.771059,2.83586 3.148296,4.73903 l 0.07823,32.78103 m 0,1e-5 c -0.427233,2.49903 -2.719162,4.1418 -4.565465,5.65703 -3.931764,2.84155 -8.563353,4.8944 -13.404385,5.42771 -4.840096,-0.4246 -9.435749,-2.44708 -13.573216,-4.90816 -2.1265858,-1.43684 -4.6439488,-3.17947 -5.1038608,-5.89829"
       sodipodi:nodetypes="cccccccccccc" />
    <path
       style="fill:#ffffff;fill-opacity:0.68627453;stroke:#0c0c0c;stroke-width:3.77952766;stroke-linecap:round;stroke-linejoin:round;stroke-miterlimit:4;stroke-dasharray:none;stroke-dashoffset:0;stroke-opacity:1"
       d="M 661.56641,79.242188 A 410.98178,123.12463 0 0 0 294.38477,147.37695 l -119.62891,-16.39453 78.70703,57.45899 a 410.98178,123.12463 0 0 0 -2.87695,13.92578 410.98178,123.12463 0 0 0 410.98047,123.125 410.98178,123.12463 0 0 0 410.98239,-123.125 A 410.98178,123.12463 0 0 0 661.56641,79.242188 Z"
       transform="matrix(0.26458333,0,0,0.26458333,6.3400433,148.9749)"
       id="path869"
       inkscape:connector-curvature="0" />
    <path
       inkscape:connector-curvature="0"
       id="rect826-0"
       d="m 43.237592,182.02166 c -0.427233,2.49903 -2.719161,4.1418 -4.565467,5.65704 -3.931764,2.84155 -8.563354,4.89439 -13.404386,5.4277 -4.840098,-0.4246 -9.435751,-2.44707 -13.573219,-4.90815 -2.126584,-1.43684 -4.643949,-3.17947 -5.103862,-5.89829"
       style="fill:none;fill-opacity:1;stroke:#000000;stroke-width:0.80000001;stroke-linecap:round;stroke-linejoin:round;stroke-miterlimit:4;stroke-dasharray:2.39999999, 2.39999999;stroke-dashoffset:0;stroke-opacity:1" />
    <path
       id="rect863"
       style="fill:none;fill-opacity:1;stroke:#000000;stroke-width:0.8;stroke-linecap:round;stroke-linejoin:round;stroke-miterlimit:4;stroke-dasharray:none;stroke-dashoffset:0;stroke-opacity:1"
       d="m 43.237586,178.63455 c 0,11.02086 0,22.04172 0,33.06258 m -36.646928,0.2783 c 0.0044,-11.11363 0.0088,-22.22725 0.01327,-33.34088 m 36.633658,33.06259 c -0.427235,2.49903 -2.719163,4.1418 -4.565466,5.65703 -3.931765,2.84155 -8.563353,4.8944 -13.404385,5.42771 -4.840096,-0.4246 -9.435749,-2.44708 -13.573216,-4.90816 -2.126586,-1.43684 -4.643949,-3.17947 -5.103861,-5.89829 M 24.77776,168.13808 c 5.58156,0.12839 10.83039,2.76493 15.233301,6.03899 1.404225,1.26879 3.771057,2.83586 3.070066,5.02059 -1.864406,3.57243 -5.51903,5.78003 -8.986476,7.58858 -3.012003,1.34237 -6.240708,2.7073 -9.589908,2.60529 -5.33248,-0.84233 -10.494587,-3.04254 -14.805294,-6.29105 -1.611056,-1.34823 -3.609572,-3.32556 -2.958866,-5.6291 1.581386,-2.99534 4.842405,-4.57739 7.691171,-6.14575 3.250013,-1.54415 6.703018,-3.02844 10.346006,-3.18755 z" />
    <path
       inkscape:connector-curvature="0"
       id="rect826-0-43-0"
       d="m 43.237592,187.21487 c -0.427235,2.49903 -2.719162,4.1418 -4.565466,5.65703 -3.931763,2.84156 -8.563352,4.8944 -13.404384,5.42771 -4.840099,-0.4246 -9.435754,-2.44707 -13.573222,-4.90816 -2.126586,-1.43684 -4.64395,-3.17947 -5.103862,-5.89829"
       style="fill:none;fill-opacity:1;stroke:#000000;stroke-width:0.80000001;stroke-linecap:round;stroke-linejoin:round;stroke-miterlimit:4;stroke-dasharray:2.39999999, 2.39999999;stroke-dashoffset:0;stroke-opacity:1" />
    <path
       inkscape:connector-curvature="0"
       id="rect826-0-43-9-5-2-5"
       d="m 43.237592,207.98771 c -0.427235,2.49903 -2.719162,4.1418 -4.565466,5.65703 -3.931763,2.84156 -8.563352,4.8944 -13.404384,5.42771 -4.840098,-0.42459 -9.435753,-2.44707 -13.573222,-4.90815 -2.126585,-1.43684 -4.643949,-3.17947 -5.103862,-5.89829"
       style="fill:none;fill-opacity:1;stroke:#000000;stroke-width:0.80000001;stroke-linecap:round;stroke-linejoin:round;stroke-miterlimit:4;stroke-dasharray:2.39999999, 2.39999999;stroke-dashoffset:0;stroke-opacity:1" />
    <path
       inkscape:connector-curvature="0"
       id="rect826-0-43-9-5-2-1"
       d="m 43.237592,197.60129 c -0.427235,2.49903 -2.719162,4.1418 -4.565466,5.65703 -3.931763,2.84156 -8.563352,4.8944 -13.404384,5.42771 -4.840099,-0.42459 -9.435754,-2.44707 -13.573222,-4.90815 -2.126584,-1.43684 -4.643949,-3.17947 -5.103862,-5.89829"
       style="fill:none;fill-opacity:1;stroke:#000000;stroke-width:0.80000001;stroke-linecap:round;stroke-linejoin:round;stroke-miterlimit:4;stroke-dasharray:2.39999999, 2.39999999;stroke-dashoffset:0;stroke-opacity:1" />
    <path
       inkscape:connector-curvature="0"
       id="rect826-0-43-1-6-3"
       d="m 43.237592,192.40808 c -0.427233,2.49903 -2.719161,4.1418 -4.565467,5.65704 -3.931764,2.84155 -8.563354,4.89439 -13.404386,5.4277 -4.840098,-0.4246 -9.435751,-2.44707 -13.57322,-4.90815 -2.126584,-1.43684 -4.643948,-3.17947 -5.103861,-5.89829"
       style="fill:none;fill-opacity:1;stroke:#000000;stroke-width:0.80000001;stroke-linecap:round;stroke-linejoin:round;stroke-miterlimit:4;stroke-dasharray:2.39999999, 2.39999999;stroke-dashoffset:0;stroke-opacity:1" />
    <path
       inkscape:connector-curvature="0"
       id="rect826-0-43-0-5-3-2"
       d="m 43.237592,202.7945 c -0.427235,2.49903 -2.719162,4.1418 -4.565466,5.65703 -3.931764,2.84156 -8.563352,4.8944 -13.404384,5.42771 -4.840099,-0.4246 -9.435754,-2.44708 -13.573222,-4.90816 -2.126585,-1.43684 -4.643949,-3.17947 -5.103862,-5.89829"
       style="fill:none;fill-opacity:1;stroke:#000000;stroke-width:0.80000001;stroke-linecap:round;stroke-linejoin:round;stroke-miterlimit:4;stroke-dasharray:2.39999999, 2.39999999;stroke-dashoffset:0;stroke-opacity:1" />
    <text
       xml:space="preserve"
       style="font-style:normal;font-weight:normal;font-size:27.04525948px;line-height:1.25;font-family:'M PLUS 1p', sans-serif;text-align:center;letter-spacing:0px;word-spacing:0px;text-anchor:middle;fill:#3d3d3d;fill-opacity:1;stroke:none;stroke-width:0.66533905;"
       x="182.57701"
       y="211.08531"
       id="text1061"><tspan
         sodipodi:role="line"
         x="182.57701"
         y="211.08531"
         style="text-align:center;text-anchor:middle;stroke-width:0.66533905;fill:#3d3d3d;fill-opacity:1;"
         id="tspan1063">Sonos speaks!</tspan></text>
  </g>
</svg>
