<?xml version="1.0" encoding="UTF-8" standalone="no"?>
<!-- Created with Inkscape (http://www.inkscape.org/) -->

<svg
   xmlns:dc="http://purl.org/dc/elements/1.1/"
   xmlns:cc="http://creativecommons.org/ns#"
   xmlns:rdf="http://www.w3.org/1999/02/22-rdf-syntax-ns#"
   xmlns:svg="http://www.w3.org/2000/svg"
   xmlns="http://www.w3.org/2000/svg"
   xmlns:sodipodi="http://sodipodi.sourceforge.net/DTD/sodipodi-0.dtd"
   xmlns:inkscape="http://www.inkscape.org/namespaces/inkscape"
   width="89.936096mm"
   height="96.184235mm"
   viewBox="0 0 89.936095 96.184237"
   version="1.1"
   id="svg5827"
   inkscape:version="0.92.3 (2405546, 2018-03-11)"
   sodipodi:docname="sonos-bubble-right.svg">
  <title
     id="title6584">sonos-bubble-right.svg</title>
  <defs
     id="defs5821" />
  <sodipodi:namedview
     id="base"
     pagecolor="#ffffff"
     bordercolor="#666666"
     borderopacity="1.0"
     inkscape:pageopacity="0.0"
     inkscape:pageshadow="2"
     inkscape:zoom="1.979899"
     inkscape:cx="101.77042"
     inkscape:cy="91.502485"
     inkscape:document-units="mm"
     inkscape:current-layer="layer1"
     showgrid="false"
     fit-margin-top="0"
     fit-margin-left="0"
     fit-margin-right="0"
     fit-margin-bottom="0"
     inkscape:window-width="2736"
     inkscape:window-height="1699"
     inkscape:window-x="-13"
     inkscape:window-y="-13"
     inkscape:window-maximized="1" />
  <metadata
     id="metadata5824">
    <rdf:RDF>
      <cc:Work
         rdf:about="">
        <dc:format>image/svg+xml</dc:format>
        <dc:type
           rdf:resource="http://purl.org/dc/dcmitype/StillImage" />
        <dc:title>sonos-bubble-right.svg</dc:title>
      </cc:Work>
    </rdf:RDF>
  </metadata>
  <g
     inkscape:label="Layer 1"
     inkscape:groupmode="layer"
     id="layer1"
     transform="translate(11.294824,-137.96022)">
    <path
       inkscape:connector-curvature="0"
       id="rect826"
       d="m 58.845943,179.25065 c -5.58156,0.12839 -10.83039,2.76493 -15.233301,6.03899 -1.404225,1.26879 -3.771057,2.83586 -3.070066,5.02059 1.864406,3.57243 5.51903,5.78003 8.986476,7.58858 3.012003,1.34237 6.240708,2.7073 9.589908,2.60529 5.33248,-0.84233 10.494587,-3.04254 14.805294,-6.29105 1.611056,-1.34823 3.609572,-3.32556 2.958866,-5.6291 -1.581386,-2.99534 -4.842405,-4.57739 -7.691171,-6.14575 -3.250013,-1.54415 -6.703018,-3.02844 -10.346006,-3.18755 z"
       style="fill:none;fill-opacity:1;stroke:#000000;stroke-width:0.5;stroke-linecap:round;stroke-linejoin:round;stroke-miterlimit:4;stroke-dasharray:none;stroke-dashoffset:0;stroke-opacity:1" />
    <path
       inkscape:connector-curvature="0"
       id="rect826-0"
       d="m 40.386111,193.37812 c 0.427233,2.49903 2.719161,4.1418 4.565467,5.65704 3.931764,2.84155 8.563354,4.89439 13.404386,5.4277 4.840098,-0.4246 9.435751,-2.44707 13.573219,-4.90815 2.126584,-1.43684 4.643949,-3.17947 5.103862,-5.89829"
       style="fill:none;fill-opacity:1;stroke:#000000;stroke-width:0.40000001;stroke-linecap:round;stroke-linejoin:round;stroke-miterlimit:4;stroke-dasharray:0.4, 1.59999999;stroke-dashoffset:0;stroke-opacity:1" />
    <path
       inkscape:connector-curvature="0"
       id="rect826-0-4"
       d="m 40.386117,222.80971 c 0.427235,2.49903 2.719163,4.1418 4.565466,5.65703 3.931765,2.84155 8.563353,4.8944 13.404385,5.42771 4.840096,-0.4246 9.435749,-2.44708 13.573216,-4.90816 2.126586,-1.43684 4.643949,-3.17947 5.103861,-5.89829"
       style="fill:none;fill-opacity:1;stroke:#000000;stroke-width:0.5;stroke-linecap:round;stroke-linejoin:round;stroke-miterlimit:4;stroke-dasharray:none;stroke-dashoffset:0;stroke-opacity:1" />
    <path
       inkscape:connector-curvature="0"
       id="rect863"
       d="m 40.386117,189.74712 c 0,11.02086 0,22.04172 0,33.06258 m 36.646928,0.2783 c -0.0044,-11.11363 -0.0088,-22.22725 -0.01327,-33.34088"
       style="fill:none;fill-opacity:1;stroke:#000000;stroke-width:0.5;stroke-linecap:round;stroke-linejoin:round;stroke-miterlimit:4;stroke-dasharray:none;stroke-dashoffset:0;stroke-opacity:1" />
    <path
       inkscape:connector-curvature="0"
       id="rect826-0-43"
       d="m 40.386111,195.51631 c 0.427233,2.49903 2.719161,4.1418 4.565467,5.65704 3.931764,2.84155 8.563354,4.89439 13.404386,5.4277 4.840098,-0.4246 9.435751,-2.44707 13.573219,-4.90815 2.126584,-1.43684 4.643949,-3.17947 5.103862,-5.89829"
       style="fill:none;fill-opacity:1;stroke:#000000;stroke-width:0.40000001;stroke-linecap:round;stroke-linejoin:round;stroke-miterlimit:4;stroke-dasharray:0.4, 1.59999999;stroke-dashoffset:0;stroke-opacity:1" />
    <path
       inkscape:connector-curvature="0"
       id="rect826-0-43-0"
       d="m 40.386111,197.65451 c 0.427235,2.49903 2.719162,4.1418 4.565466,5.65703 3.931763,2.84156 8.563352,4.8944 13.404384,5.42771 4.840099,-0.4246 9.435754,-2.44707 13.573222,-4.90816 2.126586,-1.43684 4.64395,-3.17947 5.103862,-5.89829"
       style="fill:none;fill-opacity:1;stroke:#000000;stroke-width:0.40000001;stroke-linecap:round;stroke-linejoin:round;stroke-miterlimit:4;stroke-dasharray:0.4, 1.59999999;stroke-dashoffset:0;stroke-opacity:1" />
    <path
       inkscape:connector-curvature="0"
       id="rect826-0-43-9-5"
       d="m 40.386111,199.7927 c 0.427235,2.49903 2.719162,4.1418 4.565466,5.65703 3.931763,2.84156 8.563352,4.8944 13.404384,5.42771 4.840099,-0.4246 9.435754,-2.44707 13.573222,-4.90816 2.126586,-1.43684 4.64395,-3.17947 5.103862,-5.89829"
       style="fill:none;fill-opacity:1;stroke:#000000;stroke-width:0.40000001;stroke-linecap:round;stroke-linejoin:round;stroke-miterlimit:4;stroke-dasharray:0.4, 1.59999999;stroke-dashoffset:0;stroke-opacity:1" />
    <path
       inkscape:connector-curvature="0"
       id="rect826-0-43-1"
       d="m 40.386111,201.93089 c 0.427235,2.49903 2.719163,4.1418 4.565467,5.65703 3.931765,2.84156 8.563353,4.8944 13.404386,5.42771 4.840098,-0.4246 9.435752,-2.44708 13.573219,-4.90816 2.126584,-1.43684 4.643949,-3.17947 5.103862,-5.89829"
       style="fill:none;fill-opacity:1;stroke:#000000;stroke-width:0.40000001;stroke-linecap:round;stroke-linejoin:round;stroke-miterlimit:4;stroke-dasharray:0.4, 1.59999999;stroke-dashoffset:0;stroke-opacity:1" />
    <path
       inkscape:connector-curvature="0"
       id="rect826-0-43-9-6"
       d="m 40.386111,204.06908 c 0.427233,2.49903 2.719161,4.1418 4.565467,5.65704 3.931764,2.84155 8.563354,4.89439 13.404386,5.4277 4.840098,-0.4246 9.435751,-2.44707 13.573219,-4.90815 2.126584,-1.43684 4.643949,-3.17947 5.103862,-5.89829"
       style="fill:none;fill-opacity:1;stroke:#000000;stroke-width:0.40000001;stroke-linecap:round;stroke-linejoin:round;stroke-miterlimit:4;stroke-dasharray:0.4, 1.59999999;stroke-dashoffset:0;stroke-opacity:1" />
    <path
       inkscape:connector-curvature="0"
       id="rect826-0-43-0-5"
       d="m 40.386111,210.48366 c 0.427235,2.49903 2.719162,4.1418 4.565466,5.65703 3.931763,2.84156 8.563352,4.8944 13.404384,5.42771 4.840098,-0.42459 9.435753,-2.44707 13.573222,-4.90815 2.126584,-1.43684 4.643949,-3.17947 5.103862,-5.89829"
       style="fill:none;fill-opacity:1;stroke:#000000;stroke-width:0.40000001;stroke-linecap:round;stroke-linejoin:round;stroke-miterlimit:4;stroke-dasharray:0.4, 1.59999999;stroke-dashoffset:0;stroke-opacity:1" />
    <path
       inkscape:connector-curvature="0"
       id="rect826-0-43-9-5-2"
       d="m 40.386111,216.89824 c 0.427235,2.49903 2.719162,4.1418 4.565466,5.65703 3.931764,2.84155 8.563353,4.89439 13.404384,5.4277 4.840099,-0.42459 9.435754,-2.44707 13.573222,-4.90815 2.126584,-1.43684 4.643949,-3.17947 5.103862,-5.89829"
       style="fill:none;fill-opacity:1;stroke:#000000;stroke-width:0.40000001;stroke-linecap:round;stroke-linejoin:round;stroke-miterlimit:4;stroke-dasharray:0.4, 1.59999999;stroke-dashoffset:0;stroke-opacity:1" />
    <path
       inkscape:connector-curvature="0"
       id="rect826-0-43-1-6"
       d="m 40.386111,208.34547 c 0.427235,2.49903 2.719162,4.1418 4.565467,5.65703 3.931763,2.84156 8.563353,4.8944 13.404386,5.42771 4.840099,-0.42459 9.435752,-2.44707 13.57322,-4.90815 2.126584,-1.43684 4.643948,-3.17947 5.103861,-5.89829"
       style="fill:none;fill-opacity:1;stroke:#000000;stroke-width:0.40000001;stroke-linecap:round;stroke-linejoin:round;stroke-miterlimit:4;stroke-dasharray:0.4, 1.59999999;stroke-dashoffset:0;stroke-opacity:1" />
    <path
       inkscape:connector-curvature="0"
       id="rect826-0-43-9-6-2"
       d="m 40.386111,212.62185 c 0.427235,2.49903 2.719162,4.1418 4.565467,5.65703 3.931764,2.84156 8.563353,4.8944 13.404386,5.42771 4.840098,-0.4246 9.435751,-2.44707 13.57322,-4.90815 2.126584,-1.43684 4.643948,-3.17947 5.103861,-5.89829"
       style="fill:none;fill-opacity:1;stroke:#000000;stroke-width:0.40000001;stroke-linecap:round;stroke-linejoin:round;stroke-miterlimit:4;stroke-dasharray:0.4, 1.59999999;stroke-dashoffset:0;stroke-opacity:1" />
    <path
       inkscape:connector-curvature="0"
       id="rect826-0-43-9-5-2-5"
       d="m 40.386111,221.17462 c 0.427235,2.49903 2.719162,4.1418 4.565466,5.65703 3.931763,2.84156 8.563352,4.8944 13.404384,5.42771 4.840098,-0.42459 9.435753,-2.44707 13.573222,-4.90815 2.126585,-1.43684 4.643949,-3.17947 5.103862,-5.89829"
       style="fill:none;fill-opacity:1;stroke:#000000;stroke-width:0.40000001;stroke-linecap:round;stroke-linejoin:round;stroke-miterlimit:4;stroke-dasharray:0.4, 1.59999999;stroke-dashoffset:0;stroke-opacity:1" />
    <path
       inkscape:connector-curvature="0"
       id="rect826-0-43-9-5-2-1"
       d="m 40.386111,214.76004 c 0.427235,2.49903 2.719162,4.1418 4.565466,5.65703 3.931763,2.84156 8.563352,4.8944 13.404384,5.42771 4.840099,-0.42459 9.435754,-2.44707 13.573222,-4.90815 2.126584,-1.43684 4.643949,-3.17947 5.103862,-5.89829"
       style="fill:none;fill-opacity:1;stroke:#000000;stroke-width:0.40000001;stroke-linecap:round;stroke-linejoin:round;stroke-miterlimit:4;stroke-dasharray:0.4, 1.59999999;stroke-dashoffset:0;stroke-opacity:1" />
    <path
       inkscape:connector-curvature="0"
       id="rect826-0-43-1-6-3"
       d="m 40.386111,206.20727 c 0.427233,2.49903 2.719161,4.1418 4.565467,5.65704 3.931764,2.84155 8.563354,4.89439 13.404386,5.4277 4.840098,-0.4246 9.435751,-2.44707 13.57322,-4.90815 2.126584,-1.43684 4.643948,-3.17947 5.103861,-5.89829"
       style="fill:none;fill-opacity:1;stroke:#000000;stroke-width:0.40000001;stroke-linecap:round;stroke-linejoin:round;stroke-miterlimit:4;stroke-dasharray:0.4, 1.59999999;stroke-dashoffset:0;stroke-opacity:1" />
    <path
       inkscape:connector-curvature="0"
       id="rect826-0-43-0-5-3-2"
       d="m 40.386111,219.03643 c 0.427235,2.49903 2.719162,4.1418 4.565466,5.65703 3.931764,2.84156 8.563352,4.8944 13.404384,5.42771 4.840099,-0.4246 9.435754,-2.44708 13.573222,-4.90816 2.126585,-1.43684 4.643949,-3.17947 5.103862,-5.89829"
       style="fill:none;fill-opacity:1;stroke:#000000;stroke-width:0.40000001;stroke-linecap:round;stroke-linejoin:round;stroke-miterlimit:4;stroke-dasharray:0.4, 1.59999999;stroke-dashoffset:0;stroke-opacity:1" />
    <path
       style="fill:none;fill-opacity:1;stroke:#000000;stroke-width:0.29728097;stroke-linecap:round;stroke-linejoin:round;stroke-miterlimit:4;stroke-dasharray:none;stroke-dashoffset:0;stroke-opacity:1"
       d="m 7.0191338,165.9678 c 9.5617182,2.54246 19.7574212,3.41012 29.8228992,4.20873 2.305435,2.096 4.610869,4.192 6.916305,6.288 l 0.563044,-7.17141 c 8.203992,-0.97872 16.727501,-1.93729 24.040229,-4.96919 5.452386,-2.29377 11.051639,-6.35657 10.004007,-11.32211 -1.39251,-5.35203 -8.440616,-8.57566 -14.823384,-10.64396 C 21.593962,128.20825 -42.95448,152.87115 7.0191338,165.9678 Z"
       id="path1054"
       inkscape:connector-curvature="0"
       sodipodi:nodetypes="cccccccc" />
    <text
       xml:space="preserve"
       style="font-style:normal;font-weight:normal;font-size:5.90422821px;line-height:1.25;font-family:sans-serif;text-align:center;letter-spacing:0px;word-spacing:0px;text-anchor:middle;fill:#000000;fill-opacity:1;stroke:none;stroke-width:0.1476057"
       x="34.156837"
       y="150.8877"
       id="text1061"><tspan
         sodipodi:role="line"
         x="34.156837"
         y="150.8877"
         style="text-align:center;text-anchor:middle;stroke-width:0.1476057"
         id="tspan1063">You should close the</tspan><tspan
         sodipodi:role="line"
         x="34.156837"
         y="158.26797"
         style="text-align:center;text-anchor:middle;stroke-width:0.1476057"
         id="tspan6638">rooflights, it starts to rain</tspan></text>
  </g>
</svg>
